<svg width="136" height="158" fill="none" xmlns="http://www.w3.org/2000/svg"><path fill-rule="evenodd" clip-rule="evenodd" d="M69.33 148.576c20.535 0 37.181-1.981 37.181-4.424 0-2.444-16.646-4.424-37.18-4.424s-37.18 1.98-37.18 4.424c0 2.443 16.646 4.424 37.18 4.424Z" fill="#0E1318" fill-opacity=".15"/><path fill-rule="evenodd" clip-rule="evenodd" d="M61.775 120.144c-10.335 6.844-24.044-1.094-23.302-13.493l3.285-54.884c.223-3.724 4.278-5.908 7.504-4.04l58.001 33.584c3.226 1.868 3.368 6.482.263 8.538l-45.75 30.295Z" fill="#FBBE28"/><mask id="_3474396027__a" style="mask-type:alpha" maskUnits="userSpaceOnUse" x="38" y="47" width="72" height="76"><path fill-rule="evenodd" clip-rule="evenodd" d="M61.775 120.144c-10.335 6.844-24.044-1.094-23.302-13.493l3.285-54.884c.223-3.724 4.278-5.908 7.504-4.04l58.001 33.584c3.226 1.868 3.368 6.482.263 8.538l-45.75 30.295Z" fill="#fff"/></mask><g mask="url(#_3474396027__a)"><path fill-rule="evenodd" clip-rule="evenodd" d="M99.482 43.814c-24.942-36.45 63.807 63.28 63.807 63.28l-37.335 37.444-31.287 31.378s-112.531-15.4-73.857-31.378C59.485 128.56 124.423 80.263 99.482 43.814Z" fill="#EBA800" style="mix-blend-mode:multiply"/><path fill-rule="evenodd" clip-rule="evenodd" d="M77.524 28.614c-16.249-39.022 64.342 78.481 64.342 78.481l-37.335 37.444-31.288 31.378s-72.215-22.479-36.151-44.24c36.064-21.762 56.681-64.042 40.432-103.063Z" fill="#FFD25E" style="mix-blend-mode:soft-light"/><path d="m35.781 57.428 69.856 40.449-4.411 7.663L31.37 65.091l4.411-7.662ZM25.057 76.04l69.856 40.449-4.412 7.663-69.856-40.449 4.412-7.663ZM14.98 93.556l69.855 40.448-4.41 7.663-69.857-40.448 4.412-7.663Z" fill="#EBA800" fill-opacity=".4" style="mix-blend-mode:multiply"/></g><path fill-rule="evenodd" clip-rule="evenodd" d="m100.019 21.2 2.373 3.343-11.417 6.521-1.37-5.952 10.414-3.912Zm17.926 78.456.384-2.554 8.011 2.054-1.974 3.295-6.421-2.795Z" fill="#1978EE"/><path fill-rule="evenodd" clip-rule="evenodd" d="m109.816 69.848 4.74-6.005-6.373-4.791-4.739 6.007 6.372 4.79Zm-6.348 37.237 5.234 2.488 2.443-5.541-5.235-2.488-2.442 5.541Z" fill="#FFD25E"/><path fill-rule="evenodd" clip-rule="evenodd" d="M125.962 25.327c-1.96 9.333-7.911 10.655-7.911 10.655s-4.396-10.928-10.912-3.383c-6.514 7.546 4.796 9.404 4.796 9.404-.683 10.675-23.555 11.853-23.555 11.853l-1.797 4.63c31.42-3.149 31.183-18.406 31.183-18.406 9.295-.328 14.009-15.629 14.009-15.629l-5.813.876Zm-11.855 12.717s-5.615-.5-4.007-2.834c1.609-2.332 4.007 2.834 4.007 2.834Zm14.455 31.971-3.341 3.779-4.034-3.55 3.339-3.778 4.036 3.549ZM28.255 68.858 22.34 65.63l3.398-6.34 5.914 3.227-3.397 6.342Z" fill="#EF4886"/><path fill-rule="evenodd" clip-rule="evenodd" d="M69.716 40.215c2.474-3.453 2.306-8.366 2.306-8.366l-6.271-.472c.943 3.081-1.439 8.504-1.439 8.504l5.404.334Zm49.277 74.077c-.459 3.006 1.239 6.083 1.239 6.083l4.15-1.742c-1.599-1.656-1.837-5.888-1.837-5.888l-3.552 1.547Z" fill="#FBA80F"/><path fill-rule="evenodd" clip-rule="evenodd" d="M14.832 16.51s3.752 7.738 9.387 6.209c5.64-1.532 13.11-9.931 15.974-3.262 2.867 6.67-1.062 11.07-2.52 12.648-1.462 1.572-4.857 6.247-.603 8.618 4.255 2.367 14.382-1.038 14.382-1.038l-.077-6.923s-10.552 6.382-9.548 1.278c1.005-5.104 8.8-6.163 3.847-16.907-4.953-10.746-17.663 5.344-20.59.093L22.196 12.1l-7.364 4.409Z" fill="#1978EE"/></svg>